<svg width="207" height="52" viewBox="0 0 207 52" fill="none" xmlns="http://www.w3.org/2000/svg">
<g opacity="0.7">
<g opacity="0.7">
<path d="M24.6153 52L20.9808 45.5823C20.8156 45.2532 20.32 44.924 19.8244 44.7595C18.5028 44.4304 17.1812 43.7722 16.0247 43.1139C13.2163 41.4684 10.9034 39 9.2514 36.038C8.42538 34.3924 7.76456 32.5823 7.26895 30.6076C7.10375 30.1139 6.93855 29.6203 6.44294 29.4557L0 25.8354L6.27773 22.2152C6.77334 21.8861 7.10375 21.557 7.10375 20.8987C7.43416 19.0886 8.09497 17.443 9.08619 15.962C10.7382 13 13.2163 10.6962 16.3551 9.05063C17.3464 8.55696 18.3376 8.22785 19.3288 7.89873C19.9896 7.73418 20.6504 7.07595 21.146 6.41772L24.6153 0L28.2498 6.25316C28.415 6.58228 28.7454 6.58228 28.9106 6.74684C31.5539 7.07595 34.0319 7.89873 36.0144 9.21519C38.8228 11.0253 40.3097 13.6582 40.3097 16.7848C40.3097 18.2658 39.814 19.5823 38.8228 20.7342C37.9968 21.7215 36.6752 22.8734 34.1971 22.8734C32.5451 22.8734 31.2235 22.3797 30.067 21.557C29.241 20.8987 28.0846 19.5823 28.0846 17.2785C28.0846 16.2911 28.2498 15.4684 28.7454 14.8101C28.0846 14.6456 27.2586 14.481 26.4326 14.481C24.2849 14.481 22.7981 15.3038 21.4765 16.9494C20.1548 18.7595 19.494 21.557 19.494 25.0127C19.494 28.3038 20.32 30.9367 22.1373 32.9114C23.7893 34.8861 25.937 35.8734 28.5802 35.8734C31.2235 35.8734 33.5363 35.2152 35.3535 34.0633L35.684 33.8987L36.8404 33.5696H37.1708C37.8316 33.5696 38.988 33.7342 39.9793 34.8861C40.4749 35.5443 40.8053 36.3671 40.9705 37.1899V37.3544C40.9705 38.8354 40.1445 39.9873 37.9968 41.962C36.3448 43.443 34.3623 44.4304 32.0495 45.0886C31.0583 45.2532 30.2322 45.5823 29.241 45.5823C28.9106 45.5823 28.5802 45.7468 28.415 46.0759L24.6153 52ZM2.31285 25.8354L6.93855 28.4684C7.59936 28.7975 8.09497 29.6203 8.26018 30.443C8.59058 32.2532 9.2514 33.8987 10.0774 35.5443C11.5642 38.3418 13.7119 40.6456 16.3551 42.1266C17.5116 42.7848 18.668 43.2785 19.9896 43.7722C20.8156 44.1013 21.4765 44.5949 21.8069 45.2532L24.6153 50.0253L27.2586 45.4177C27.589 44.924 28.0846 44.4304 28.7454 44.4304C29.5714 44.2658 30.5626 44.1013 31.3887 43.9367C33.5363 43.443 35.3535 42.4557 37.0056 41.1392C38.8228 39.4937 39.6488 38.5063 39.6488 37.519L40.1445 37.3544H39.6488C39.6488 36.8608 39.3184 36.2025 38.988 35.7089C38.3272 34.8861 37.5012 34.7215 37.1708 34.7215H37.0056L36.1796 35.0506L36.0144 35.2152C34.0319 36.5316 31.5539 37.1899 28.7454 37.1899C25.7717 37.1899 23.4589 36.038 21.4765 33.8987C19.1636 31.2658 18.1724 28.4684 18.1724 24.8481C18.1724 21.0633 18.9984 18.1013 20.4852 16.1266C21.9721 14.1519 23.7893 13.1646 26.2674 13.1646C27.4238 13.1646 28.415 13.3291 29.4062 13.6582C29.5714 13.6582 29.5714 13.6582 29.7366 13.8228L30.3974 14.1519L29.9018 14.8101C29.4062 15.4684 29.0758 16.2911 29.0758 17.2785C29.0758 19.0886 29.9018 20.0759 30.5626 20.7342C31.5539 21.3924 32.7103 21.8861 34.0319 21.8861C36.1796 21.8861 37.1708 20.8987 37.8316 20.2405C38.6576 19.2532 38.988 18.1013 38.988 16.9494C38.988 14.3165 37.6664 12.0127 35.1883 10.3671C33.3711 9.05063 31.2235 8.3924 28.5802 8.06329C27.9194 8.06329 27.4238 7.56962 27.0934 7.07595L24.4501 2.46835L21.8069 7.07595C21.3113 8.06329 20.4852 8.72152 19.494 9.05063C18.5028 9.37975 17.6768 9.70886 16.6856 10.2025C13.8771 11.519 11.7294 13.6582 10.0774 16.4557C9.2514 17.9367 8.59058 19.4177 8.26018 21.2278C8.09497 22.0506 7.59936 22.7089 6.77334 23.2025L2.31285 25.8354Z" fill="white"/>
</g>
</g>
<path d="M37.8316 36.3671C37.6664 36.038 37.336 35.8735 37.1708 35.8735L36.6752 36.038C34.5275 37.519 31.7191 38.3418 28.415 38.3418C25.1109 38.3418 22.3025 37.0254 19.9896 34.557C17.6768 32.0886 16.6855 28.7975 16.6855 24.8481C16.6855 20.7342 17.5116 17.4431 19.1636 15.1393C20.8156 12.8355 23.2937 11.6836 26.2673 11.6836C27.589 11.6836 28.7454 11.8481 30.067 12.3418C31.2234 12.8355 31.8843 13.4937 31.8843 14.3165C31.8843 14.6456 31.7191 15.1393 31.3886 15.4684C31.0582 15.9621 30.893 16.4557 30.893 17.114C30.893 18.1013 31.2234 18.9241 31.8843 19.4178C32.5451 19.9114 33.3711 20.2405 34.3623 20.2405C35.5187 20.2405 36.51 19.9114 37.0056 19.0886C37.5012 18.4304 37.8316 17.6076 37.8316 16.7848C37.8316 14.6456 36.8404 12.8355 34.6927 11.3545C33.0407 10.2026 31.0582 9.54434 28.9106 9.37979C27.7542 9.21523 26.7629 8.72156 26.2673 7.73422L24.9457 5.43042L23.6241 7.73422C22.9633 8.88612 21.8068 9.87346 20.4852 10.3671C19.6592 10.6962 18.8332 11.0254 18.0072 11.3545C15.3639 12.6709 13.2163 14.6456 11.8946 17.2785C11.0686 18.595 10.573 20.076 10.2426 21.557C9.91219 22.7089 9.25138 23.8608 8.09495 24.519L5.7821 25.8355L8.09495 27.1519C9.25138 27.8102 9.91219 28.7975 10.2426 30.114C10.573 31.7595 11.2338 33.4051 11.8946 34.7216C13.3815 37.3545 15.1987 39.3292 17.6768 40.8102C18.668 41.4684 19.8244 41.9621 20.9808 42.2912C22.1373 42.6203 23.1285 43.2785 23.6241 44.4304V44.595L24.9457 46.8988L26.2673 44.595C26.7629 43.6076 27.7542 42.9494 28.9106 42.7849C29.7366 42.6203 30.5626 42.4557 31.3886 42.2912C33.3711 41.7975 35.0231 40.9747 36.3448 39.8228C37.6664 38.6709 38.3272 37.8481 38.3272 37.3545C38.162 36.8608 37.9968 36.6962 37.8316 36.3671Z" fill="white"/>
<path d="M89.0448 31.4303C89.0448 32.4176 89.21 33.0758 89.3752 33.5695C89.5404 33.8986 89.8708 34.2277 90.3664 34.2277C90.6968 34.2277 90.862 34.2277 91.1924 34.0632C91.3576 34.0632 91.688 33.8986 92.0185 33.5695H92.1837C92.3489 33.5695 92.3489 33.7341 92.5141 33.8986C92.6793 34.0632 92.6793 34.2277 92.6793 34.3923C92.6793 34.5569 92.6793 34.5569 92.5141 34.5569C92.0185 35.0505 91.5228 35.5442 90.862 35.8733C90.2012 36.2024 89.5404 36.367 88.8796 36.367C88.0536 36.367 87.2276 36.2024 86.7319 35.8733C86.0711 35.5442 85.7407 35.0505 85.2451 34.2277C85.2451 34.2277 85.2451 34.0632 85.0799 34.0632H84.9147C84.0887 34.7214 83.0975 35.3796 82.2714 35.7088C81.2802 36.0379 80.289 36.2024 78.9674 36.2024C77.3153 36.2024 76.1589 35.7088 75.1677 34.886C74.3417 34.0632 73.8461 32.9113 73.8461 31.2657C73.8461 29.1265 74.8373 27.6455 76.6545 26.4936C78.4718 25.3417 81.2802 24.848 84.9147 24.848C84.9147 24.848 84.9147 24.848 85.0799 24.848C85.0799 24.848 85.0799 24.6834 85.0799 24.5189C85.0799 24.3543 85.0799 24.1898 85.0799 23.8607C85.0799 23.5315 85.0799 23.2024 85.0799 22.5442C85.0799 20.7341 84.7495 19.4176 84.0887 18.5948C83.4279 17.772 82.4366 17.4429 81.115 17.4429C80.289 17.4429 79.6282 17.6075 78.9674 18.1012C78.3066 18.4303 77.9762 19.0885 77.9762 19.7467C77.9762 20.0758 78.1414 20.405 78.3066 20.5695C78.4718 20.8986 78.637 21.2277 78.637 21.3923C78.637 21.7214 78.4718 22.2151 77.9762 22.5442C77.6458 22.8733 77.1501 23.0379 76.4893 23.0379C75.6633 23.0379 75.1677 22.8733 74.8373 22.3796C74.5069 22.0505 74.3417 21.3923 74.3417 20.8986C74.3417 19.5822 75.0025 18.2657 76.4893 17.2784C77.9762 16.291 79.6282 15.7974 81.7758 15.7974C84.0887 15.7974 85.7407 16.291 87.0624 17.2784C88.384 18.2657 89.0448 20.0758 89.0448 22.3796V31.4303ZM85.0799 27.1518C85.0799 26.8227 85.0799 26.6581 85.0799 26.6581L84.9147 26.4936C82.6019 26.6581 80.9498 27.1518 79.7934 27.9746C78.637 28.7974 78.1414 29.7847 78.1414 30.9366C78.1414 31.9239 78.3066 32.5822 78.8022 33.0758C79.2978 33.5695 79.9586 33.8986 80.7846 33.8986C81.7758 33.8986 82.7671 33.5695 83.5931 33.0758C84.5843 32.5822 85.0799 32.0885 85.0799 31.5948V27.1518Z" fill="white"/>
<path d="M101.435 30.7723C101.435 31.4305 101.435 32.0887 101.435 32.5824C101.435 33.0761 101.6 33.4052 101.931 33.7343C102.261 34.0634 102.592 34.228 103.087 34.3925C103.583 34.5571 104.409 34.7216 105.4 34.8862C105.73 34.8862 105.896 35.2153 105.896 35.5444C105.896 35.709 105.896 35.8735 105.73 36.0381C105.565 36.2026 105.565 36.2026 105.4 36.2026C104.244 36.2026 103.087 36.2026 102.261 36.0381C101.27 35.8735 100.444 35.8735 99.6178 35.8735C98.7918 35.8735 97.8006 35.8735 96.9746 36.0381C96.1486 36.2026 95.1573 36.2026 94.3313 36.2026C94.0009 36.2026 94.0009 36.0381 94.0009 35.5444C94.0009 35.2153 94.1661 34.8862 94.4965 34.8862C95.3225 34.7216 95.9834 34.5571 96.479 34.3925C96.9746 34.228 97.305 33.8988 97.4702 33.5697C97.6354 33.2406 97.8006 32.4178 97.8006 31.1014V25.0128C97.8006 22.8735 97.8006 21.3925 97.6354 20.7343C97.4702 20.0761 97.1398 19.5824 96.8094 19.2533C96.479 18.9242 95.653 18.7596 94.4965 18.7596C94.3313 18.7596 94.3313 18.7596 94.1661 18.595C94.1661 18.4305 94.0009 18.2659 94.0009 18.1014C94.0009 17.9368 94.0009 17.7723 94.1661 17.7723C94.1661 17.6077 94.3313 17.6077 94.4965 17.6077C96.1486 17.4431 97.9658 17.2786 99.783 16.9495L100.444 16.7849C100.939 16.7849 101.27 17.114 101.27 17.6077L101.105 20.4052H101.27C101.765 19.2533 102.426 18.2659 103.252 17.6077C104.078 16.9495 105.235 16.6204 106.722 16.6204C107.878 16.6204 108.704 16.9495 109.365 17.4431C109.86 17.9368 110.191 18.7596 110.191 19.5824C110.191 20.0761 110.026 20.5697 109.695 20.8988C109.365 21.228 108.869 21.5571 108.208 21.5571C107.548 21.5571 107.052 21.3925 106.887 21.0634C106.556 20.7343 106.556 20.4052 106.556 20.0761C106.556 19.2533 106.226 18.7596 105.4 18.7596C104.739 18.7596 104.244 18.9242 103.748 19.4178C103.252 19.9115 102.757 20.5697 102.426 21.228C102.096 21.8862 101.931 22.5444 101.931 23.0381V30.7723H101.435Z" fill="white"/>
<path d="M126.381 31.4303C126.381 32.4176 126.546 33.0758 126.711 33.5695C126.876 33.8986 127.207 34.2277 127.702 34.2277C128.033 34.2277 128.198 34.2277 128.528 34.0632C128.694 34.0632 129.024 33.8986 129.354 33.5695H129.52C129.685 33.5695 129.685 33.7341 129.85 33.8986C130.015 34.0632 130.015 34.2277 130.015 34.3923C130.015 34.5569 130.015 34.5569 129.85 34.5569C129.354 35.0505 128.859 35.5442 128.198 35.8733C127.537 36.2024 126.876 36.367 126.216 36.367C125.39 36.367 124.564 36.2024 124.068 35.8733C123.407 35.5442 123.077 35.0505 122.581 34.2277C122.581 34.2277 122.581 34.0632 122.416 34.0632H122.251C121.425 34.7214 120.433 35.3796 119.607 35.7088C118.616 36.0379 117.625 36.2024 116.303 36.2024C114.651 36.2024 113.495 35.7088 112.504 34.886C111.678 34.0632 111.182 32.9113 111.182 31.2657C111.182 29.1265 112.173 27.6455 113.99 26.4936C115.808 25.3417 118.616 24.848 122.251 24.848C122.251 24.848 122.251 24.848 122.416 24.848C122.416 24.848 122.416 24.6834 122.416 24.5189C122.416 24.3543 122.416 24.1898 122.416 23.8607C122.416 23.5315 122.416 23.2024 122.416 22.5442C122.416 20.7341 122.085 19.4176 121.425 18.5948C120.764 17.772 119.773 17.4429 118.451 17.4429C117.625 17.4429 116.964 17.6075 116.303 18.1012C115.643 18.4303 115.312 19.0885 115.312 19.7467C115.312 20.0758 115.477 20.405 115.643 20.5695C115.808 20.8986 115.973 21.2277 115.973 21.3923C115.973 21.7214 115.808 22.2151 115.312 22.5442C114.982 22.8733 114.486 23.0379 113.825 23.0379C112.999 23.0379 112.504 22.8733 112.173 22.3796C111.843 22.0505 111.678 21.3923 111.678 20.8986C111.678 19.5822 112.338 18.2657 113.825 17.2784C115.312 16.291 116.964 15.7974 119.112 15.7974C121.425 15.7974 123.077 16.291 124.398 17.2784C125.72 18.2657 126.381 20.0758 126.381 22.3796V31.4303ZM122.416 27.1518C122.416 26.8227 122.416 26.6581 122.416 26.6581L122.251 26.4936C119.938 26.6581 118.286 27.1518 117.129 27.9746C115.973 28.7974 115.477 29.7847 115.477 30.9366C115.477 31.9239 115.643 32.5822 116.138 33.0758C116.634 33.5695 117.295 33.8986 118.121 33.8986C119.112 33.8986 120.103 33.5695 120.929 33.0758C121.92 32.5822 122.416 32.0885 122.416 31.5948V27.1518Z" fill="white"/>
<path d="M139.927 36.5317C139.597 36.5317 139.432 36.5317 139.267 36.3672C136.623 30.9368 134.311 26.1647 132.659 21.8862C132.163 20.5697 131.832 19.7469 131.502 19.4178C131.172 19.0887 130.841 18.7596 130.511 18.595C130.18 18.4305 129.685 18.2659 129.189 18.1014C128.859 18.1014 128.859 17.7723 128.859 17.4431C128.859 17.114 129.024 16.7849 129.189 16.7849C130.015 16.7849 130.841 16.7849 131.502 16.9495C132.328 17.114 133.154 17.114 133.98 17.114C134.806 17.114 135.632 17.114 136.458 16.9495C137.284 16.7849 138.11 16.7849 138.936 16.7849C139.267 16.7849 139.432 16.9495 139.432 17.4431C139.432 17.6077 139.432 17.7723 139.267 17.9368C139.267 18.1014 139.101 18.1014 138.936 18.1014C138.11 18.1014 137.449 18.2659 137.119 18.595C136.789 18.9242 136.623 19.2533 136.623 19.7469C136.623 20.0761 136.789 20.7343 136.954 21.2279C138.275 24.8482 139.762 28.1393 141.084 30.9368C141.084 31.1014 141.249 31.1014 141.249 31.1014C141.414 31.1014 141.414 31.1014 141.579 30.9368C142.901 27.9748 144.223 24.5191 145.379 20.7343C145.544 20.4052 145.544 20.0761 145.544 19.7469C145.544 19.0887 145.379 18.595 144.884 18.4305C144.388 18.2659 144.058 18.1014 143.562 18.1014C143.397 18.1014 143.397 18.1014 143.232 17.9368C143.232 17.7723 143.066 17.6077 143.066 17.6077C143.066 17.4431 143.066 17.2786 143.232 17.114C143.232 16.9495 143.397 16.9495 143.562 16.9495C144.223 16.9495 144.718 16.9495 145.379 17.114C145.875 17.2786 146.536 17.2786 147.031 17.2786C147.692 17.2786 148.353 17.2786 149.014 17.114C149.674 16.9495 150.17 16.9495 150.666 16.9495C150.831 16.9495 150.831 16.9495 150.996 17.114C150.996 17.2786 151.161 17.4431 151.161 17.6077C151.161 17.7723 151.161 17.9368 150.996 18.1014C150.996 18.2659 150.831 18.2659 150.666 18.2659C150.005 18.2659 149.509 18.4305 149.179 18.7596C148.848 19.0887 148.353 19.4178 148.188 19.7469C147.857 20.2406 147.527 21.0634 146.866 22.3798C145.049 26.9874 142.901 31.7596 140.919 36.5317C140.588 36.5317 140.258 36.5317 139.927 36.5317Z" fill="white"/>
<path d="M155.952 25.1773C155.787 25.1773 155.787 25.1773 155.787 25.3419C155.787 25.5064 155.787 25.5064 155.787 25.671C155.787 28.3039 156.448 30.2786 157.604 31.5951C158.761 32.9115 160.413 33.5697 162.56 33.5697C164.873 33.5697 166.525 33.0761 167.682 32.2533C167.682 32.0887 167.847 32.0887 168.012 32.0887C168.177 32.0887 168.342 32.2533 168.508 32.4178C168.673 32.5824 168.673 32.747 168.673 32.9115C168.673 33.0761 168.342 33.5697 167.516 34.3925C166.69 35.0507 165.864 35.5444 164.873 35.8735C163.882 36.2026 162.726 36.3672 161.404 36.3672C158.265 36.3672 155.787 35.5444 154.135 33.7343C152.318 31.9242 151.492 29.4558 151.492 26.3292C151.492 24.5191 151.822 22.8735 152.648 21.228C153.474 19.747 154.631 18.4305 156.117 17.6077C157.604 16.7849 159.256 16.2913 160.908 16.2913C163.221 16.2913 165.038 17.114 166.525 18.5951C168.012 20.0761 168.673 22.0508 168.673 24.3545C168.673 25.0128 168.508 25.1773 168.012 25.1773H155.952ZM163.552 23.6963C163.882 23.6963 164.047 23.6963 164.212 23.5318C164.378 23.3672 164.378 23.0381 164.378 22.3799C164.378 21.228 164.047 20.0761 163.221 19.2533C162.56 18.4305 161.569 17.9368 160.413 17.9368C159.091 17.9368 158.1 18.4305 157.274 19.2533C156.448 20.0761 155.952 21.228 155.787 22.8735V23.5318C155.787 23.8609 155.787 24.0254 155.952 24.0254H163.552V23.6963Z" fill="white"/>
<path d="M174.62 14.6456C174.62 12.6709 174.62 11.519 174.455 10.8607C174.29 10.2025 173.959 9.87341 173.629 9.54429C173.299 9.21518 172.473 9.05062 171.151 9.05062C170.986 9.05062 170.986 9.05062 170.821 8.88607C170.821 8.72151 170.655 8.55695 170.655 8.3924C170.655 8.06328 170.821 7.73417 171.151 7.73417C172.803 7.56961 174.29 7.40505 175.777 7.07594C176.933 6.91138 177.594 6.74683 177.924 6.74683C178.089 6.74683 178.255 6.74683 178.42 6.91138C178.585 7.07594 178.585 7.2405 178.585 7.2405V30.7721C178.585 31.4304 178.585 32.0886 178.585 32.5823C178.585 33.0759 178.75 33.4051 178.916 33.7342C179.081 34.0633 179.411 34.2278 179.742 34.3924C180.072 34.5569 180.733 34.7215 181.394 34.8861C181.724 34.8861 181.889 35.2152 181.889 35.5443C181.889 35.8734 181.724 36.038 181.394 36.038C180.733 36.038 179.907 36.038 179.081 35.8734C178.255 35.7088 177.429 35.7088 176.603 35.7088C175.777 35.7088 174.785 35.7088 173.959 35.8734C173.133 36.038 172.142 36.038 171.316 36.038C171.151 36.038 170.986 36.038 170.986 35.8734C170.986 35.7088 170.821 35.5443 170.821 35.5443C170.821 35.2152 170.986 34.8861 171.316 34.8861C172.142 34.7215 172.803 34.7215 173.299 34.3924C173.794 34.2278 173.959 33.8987 174.125 33.5696C174.29 33.2405 174.455 32.4177 174.455 31.1013V14.6456H174.62Z" fill="white"/>
<path d="M71.2028 32.9114C71.0376 32.7468 70.8724 32.5822 70.7072 32.5822L70.3768 32.7468C69.0552 33.7341 67.2379 34.2278 65.2555 34.2278C63.1078 34.2278 61.4558 33.405 59.969 31.924C58.6473 30.2784 57.8213 28.3038 57.8213 26C57.8213 23.5316 58.3169 21.3924 59.4734 20.0759C60.4646 18.5949 61.9514 17.9367 63.7686 17.9367C64.5947 17.9367 65.4207 18.1012 66.0815 18.4303C66.7423 18.7595 67.2379 19.0886 67.2379 19.5822C67.2379 19.7468 67.0727 20.0759 66.9075 20.405C66.7423 20.7341 66.5771 21.0633 66.5771 21.3924C66.5771 22.0506 66.7423 22.5443 67.2379 22.7088C67.5683 23.0379 68.0639 23.2025 68.7247 23.2025C69.3856 23.2025 70.0464 22.8734 70.3768 22.5443C70.7072 22.0506 70.8724 21.5569 70.8724 21.0633C70.8724 19.7468 70.2116 18.5949 68.89 17.7721C67.8987 17.1139 66.7423 16.6202 65.2555 16.4557C64.5947 16.4557 63.9338 15.962 63.6034 15.4683L62.7774 13.9873L61.9514 15.4683C61.4558 16.2911 60.795 16.7848 59.969 17.1139C59.4734 17.2784 58.9777 17.443 58.4821 17.7721C56.8301 18.5949 55.5085 19.9114 54.6824 21.3924C54.1868 22.2152 53.8564 23.0379 53.6912 24.0253C53.526 24.8481 53.0304 25.5063 52.3696 25.8354L51.048 26.3291L52.5348 27.1519C53.1956 27.481 53.6912 28.1392 53.8564 28.962C54.0216 29.9493 54.352 30.9367 54.8477 31.924C55.6737 33.5696 56.9953 34.7215 58.4821 35.7088C59.1429 36.0379 59.8038 36.3671 60.4646 36.5316C61.1254 36.6962 61.7862 37.1898 62.1166 37.8481L62.9426 39.3291L63.7686 37.8481C64.099 37.1898 64.7599 36.8607 65.4207 36.6962C65.9163 36.6962 66.4119 36.5316 66.9075 36.3671C68.0639 36.0379 69.0552 35.5443 70.0464 34.7215C70.8724 34.0633 71.368 33.5696 71.368 33.2405C71.5332 33.2405 71.368 33.0759 71.2028 32.9114Z" fill="white"/>
<path d="M204.026 33.7342C203.861 33.5696 203.696 33.4051 203.696 33.4051H203.531C203.2 33.5696 202.87 33.7342 202.705 33.8987C202.54 33.8987 202.209 34.0633 201.879 34.0633C201.383 34.0633 201.053 33.8987 200.888 33.4051C200.722 33.0759 200.557 32.2532 200.557 31.2658V28.6329C200.557 27.8101 200.888 27.1519 201.548 26.8228L203.035 26L201.548 25.1772C200.888 24.8481 200.557 24.1899 200.557 23.3671V22.7088C200.557 20.2405 199.896 18.5949 198.575 17.443C197.583 16.6202 196.262 16.1266 194.775 15.962C194.114 15.7975 193.453 15.4683 193.123 14.8101L192.297 13.3291L191.471 14.8101C190.975 15.6329 190.315 16.1266 189.488 16.4557C188.993 16.6202 188.497 16.9494 188.002 17.2785C186.515 18.2658 185.854 19.4177 185.854 20.8987C185.854 21.557 186.019 22.0506 186.35 22.3797C186.68 22.8734 187.176 23.038 188.002 23.038C188.497 23.038 188.993 22.8734 189.488 22.5443C189.819 22.2152 190.149 21.7215 190.149 21.3924C190.149 21.0633 189.984 20.7342 189.819 20.4051C189.654 20.0759 189.488 19.7468 189.488 19.4177C189.488 18.7595 189.819 18.2658 190.48 17.7721C191.141 17.2785 191.801 17.1139 192.627 17.1139C193.949 17.1139 194.94 17.443 195.766 18.2658C196.427 19.0886 196.757 20.4051 196.757 22.2152C196.757 22.7088 196.757 23.2025 196.757 23.5316C196.757 23.8607 196.757 24.0253 196.757 24.1899C196.757 24.3544 196.757 24.3544 196.757 24.519C196.757 24.519 196.757 24.519 196.592 24.519C192.958 24.519 190.149 25.0126 188.332 26.1645C186.515 27.3164 185.524 28.7975 185.524 30.9367C185.524 32.5823 186.019 33.7342 186.845 34.557C187.671 35.3797 188.993 35.8734 190.645 35.8734C190.975 35.8734 191.471 36.038 191.636 36.3671L191.801 36.5316L192.627 38.0126L193.453 36.5316C193.949 35.7089 194.61 35.2152 195.271 34.7215C195.766 34.3924 196.262 34.0633 196.757 33.5696H196.923C196.923 33.5696 197.088 33.5696 197.088 33.7342C197.418 34.557 197.914 35.0506 198.575 35.3797C199.235 35.7089 199.896 35.8734 200.722 35.8734C201.383 35.8734 202.044 35.7089 202.705 35.3797C203.366 35.0506 204.026 34.557 204.357 33.8987C204.357 33.8987 204.522 33.7342 204.522 33.5696C204.192 34.0633 204.026 33.8987 204.026 33.7342ZM196.427 31.7595C196.427 32.2532 195.931 32.7468 194.94 33.2405C193.949 33.7342 192.958 34.0633 191.967 34.0633C191.141 34.0633 190.315 33.7342 189.819 33.2405C189.323 32.7468 189.158 31.924 189.158 30.9367C189.158 29.6202 189.654 28.6329 190.81 27.8101C191.967 26.9873 193.619 26.4937 195.931 26.3291C196.097 26.3291 196.097 26.3291 196.097 26.4937C196.097 26.4937 196.097 26.8228 196.097 27.1519V31.7595H196.427Z" fill="white"/>
<path d="M63.9337 10.5318C63.6033 10.5318 63.2729 10.5318 62.9425 10.3672C62.7773 10.2027 62.6121 10.0381 62.2817 9.87354C62.1165 9.70898 61.9513 9.37987 61.7861 9.21531C61.6209 8.8862 61.6208 8.72164 61.6208 8.39252C61.6208 8.06341 61.6209 7.7343 61.7861 7.56974C61.9513 7.24063 62.1165 7.07607 62.4469 6.91151C62.7773 6.5824 63.1077 6.41784 63.4381 6.41784C63.7685 6.41784 64.2641 6.25328 64.5945 6.25328C64.9249 6.25328 65.2553 6.25328 65.5857 6.41784C65.9162 6.5824 66.2466 6.5824 66.577 6.74696V5.92417C66.577 5.4305 66.4118 4.93683 66.0814 4.60772C65.7509 4.2786 65.2553 4.11404 64.7597 4.11404C64.0989 4.11404 63.2729 4.44316 62.6121 4.93683L62.2817 4.11404C62.9425 3.62037 63.9337 3.29126 64.7597 3.29126C65.5857 3.29126 66.4118 3.45582 66.9074 3.94949C67.403 4.60772 67.7334 5.26594 67.7334 6.08873V8.8862C67.7334 9.21531 67.8986 9.37987 68.0638 9.37987V10.3672C67.8986 10.3672 67.8986 10.3672 67.7334 10.3672C67.7334 10.3672 67.5682 10.3672 67.403 10.3672C67.2378 10.3672 67.0726 10.3672 66.9074 10.2027C66.7422 10.0381 66.7422 9.87354 66.7422 9.70898V9.21531C66.4118 9.70898 66.0814 9.87354 65.5857 10.2027C65.0901 10.3672 64.5945 10.5318 63.9337 10.5318ZM64.2641 9.54442C64.7597 9.54442 65.0901 9.54442 65.4205 9.37987C65.7509 9.21531 66.0814 9.05075 66.2466 8.72164C66.4118 8.55708 66.577 8.39253 66.577 8.22797V7.24063C66.0814 7.07607 65.4205 6.91151 64.7597 6.91151C64.0989 6.91151 63.7685 7.07607 63.2729 7.24063C62.9425 7.56974 62.7773 7.89885 62.7773 8.22797C62.7773 8.39253 62.7773 8.55708 62.9425 8.72164C63.1077 8.8862 63.1077 9.05075 63.2729 9.21531C63.4381 9.37987 63.6033 9.37987 63.7685 9.54442C63.9337 9.54442 64.0989 9.54442 64.2641 9.54442Z" fill="white"/>
<path d="M72.3591 10.3672C71.8635 10.3672 71.5331 10.2027 71.0375 10.0381C70.5418 9.87354 70.3766 9.54442 70.0462 9.21531C69.7158 9.05075 69.5506 8.55708 69.3854 8.22797C69.2202 7.89885 69.2202 7.40518 69.2202 6.91151C69.2202 6.41784 69.2202 5.92417 69.3854 5.59506C69.5506 5.26594 69.7158 4.77227 70.0462 4.44316C70.3766 4.11404 70.707 3.78493 71.0375 3.62037C71.3679 3.45582 71.8635 3.29126 72.3591 3.29126C73.0199 3.29126 73.5155 3.45582 73.8459 3.78493C74.3415 4.11404 74.6719 4.44316 74.8371 4.77227V3.45582H75.9936V10.2027C75.9936 10.6963 75.8283 11.19 75.6631 11.5191C75.4979 11.8482 75.1675 12.1773 74.8371 12.5064C74.5067 12.8356 74.1763 13.0001 73.6807 13.1647C73.1851 13.3292 72.8547 13.3292 72.3591 13.3292C71.5331 13.3292 70.8722 13.1647 70.3766 13.0001C69.881 12.671 69.5506 12.3419 69.2202 11.8482L69.881 11.19C70.2114 11.5191 70.5418 11.8482 71.0375 12.0128C71.5331 12.1773 71.8635 12.3419 72.3591 12.3419C72.6895 12.3419 73.0199 12.3419 73.1851 12.1773C73.5155 12.0128 73.6807 12.0128 74.0111 11.8482C74.3415 11.6837 74.3415 11.5191 74.5067 11.19C74.6719 10.8609 74.6719 10.6963 74.6719 10.2027V9.05075C74.5067 9.21531 74.3415 9.37987 74.1763 9.54442C74.0111 9.70898 73.8459 9.87354 73.5155 10.0381C73.1851 10.2027 73.0199 10.2027 72.8547 10.3672C72.6895 10.5318 72.5243 10.3672 72.3591 10.3672ZM72.6895 9.37987C72.8547 9.37987 73.1851 9.37987 73.3503 9.21531C73.5155 9.05075 73.8459 9.05075 74.0111 8.8862C74.1763 8.72164 74.3415 8.55708 74.5067 8.39253C74.6719 8.22797 74.6719 8.06341 74.8371 7.89885V5.92417C74.6719 5.75961 74.6719 5.4305 74.5067 5.26594C74.3415 5.10139 74.1763 4.93683 74.0111 4.77227C73.8459 4.60772 73.6807 4.44316 73.3503 4.44316C73.1851 4.44316 72.8547 4.2786 72.6895 4.2786C72.3591 4.2786 72.0287 4.2786 71.6983 4.44316C71.3679 4.60772 71.0375 4.93683 70.8722 5.10139C70.707 5.26594 70.5418 5.59506 70.3766 5.92417C70.2114 6.25328 70.3766 6.5824 70.3766 6.91151C70.3766 7.24063 70.3766 7.56974 70.5418 7.89885C70.707 8.22797 70.8722 8.39253 71.0375 8.72164C71.2027 9.05075 71.5331 9.21531 71.8635 9.21531C72.0287 9.37987 72.3591 9.37987 72.6895 9.37987Z" fill="white"/>
<path d="M80.7845 10.5318C80.2889 10.5318 79.7932 10.3672 79.2976 10.2027C78.802 10.0381 78.4716 9.70898 78.1412 9.37987C77.8108 9.05075 77.8108 8.72164 77.6456 8.22797C77.4804 7.7343 77.3152 7.40518 77.3152 6.91151C77.3152 6.41784 77.4804 5.92417 77.6456 5.59506C77.8108 5.26594 78.1412 4.77227 78.3064 4.44316C78.6368 4.11404 78.9672 3.78493 79.4628 3.62037C79.9584 3.45582 80.2889 3.29126 80.9497 3.29126C81.4453 3.29126 81.9409 3.45582 82.4365 3.62037C82.9321 3.78493 83.2625 4.11404 83.5929 4.44316C83.9233 4.77227 84.0885 5.10139 84.2537 5.59506C84.4189 6.08873 84.2537 6.41784 84.2537 6.91151C84.2537 7.07607 84.2537 7.07607 84.2537 7.24063V7.40518H78.4716C78.4716 7.7343 78.6368 8.06341 78.6368 8.39252C78.802 8.72164 78.9672 8.8862 79.1324 9.05075C79.2976 9.21531 79.628 9.37987 79.7932 9.54442C79.9584 9.70898 80.2889 9.70898 80.6193 9.70898C80.7845 9.70898 81.1149 9.70898 81.2801 9.54442C81.4453 9.54442 81.6105 9.37987 81.7757 9.37987C81.9409 9.21531 82.1061 9.21531 82.2713 9.05075C82.4365 8.8862 82.4365 8.72164 82.6017 8.55708L83.5929 8.8862C83.4277 9.21531 83.2625 9.37987 83.0973 9.54442C82.9321 9.70898 82.9321 9.87354 82.7669 10.0381C82.4365 10.2027 82.2713 10.3672 81.9409 10.3672C81.6105 10.3672 81.2801 10.5318 80.7845 10.5318ZM83.2625 6.41784C83.2625 6.08873 83.0973 5.75961 83.0973 5.59506C82.7669 5.26594 82.6017 4.93683 82.4365 4.77227C82.2713 4.60772 81.9409 4.44316 81.7757 4.2786C81.4453 4.11404 81.2801 4.11404 80.9497 4.11404C80.6193 4.11404 80.2889 4.11404 80.1236 4.2786C79.7932 4.44316 79.628 4.60772 79.4628 4.77227C79.2976 4.93683 79.1324 5.26594 78.9672 5.4305C78.802 5.75961 78.802 5.92417 78.802 6.25328H83.2625V6.41784Z" fill="white"/>
<path d="M91.5227 10.3672H90.3662V6.41784C90.3662 5.75961 90.201 5.10139 90.0358 4.77227C89.8706 4.44316 89.5402 4.2786 89.0446 4.2786C88.8794 4.2786 88.549 4.2786 88.3838 4.44316C88.2186 4.60772 87.8882 4.60772 87.723 4.77227C87.5578 4.93683 87.3926 5.10139 87.2274 5.26594C87.0622 5.4305 86.897 5.75961 86.897 5.92417V10.0381H85.7405V3.45582H86.7318V4.93683C87.0622 4.44316 87.3926 4.11404 87.8882 3.78493C88.3838 3.45582 89.0446 3.29126 89.5402 3.29126C89.8706 3.29126 90.201 3.29126 90.5314 3.45582C90.8618 3.62037 91.027 3.78493 91.1922 4.11404C91.3575 4.44316 91.5227 4.60772 91.5227 5.10139C91.5227 5.4305 91.6879 5.75961 91.6879 6.25328V10.3672H91.5227Z" fill="white"/>
<path d="M93.0095 6.91151C93.0095 6.41784 93.1747 5.92417 93.3399 5.59506C93.5051 5.10139 93.6703 4.77227 94.0007 4.44316C94.3312 4.11404 94.6616 3.94949 95.1572 3.62037C95.4876 3.45582 95.9832 3.29126 96.4788 3.29126C97.1396 3.29126 97.8004 3.45582 98.296 3.78493C98.7917 4.11404 99.1221 4.44316 99.2873 4.93683L98.1308 5.26594C97.9656 4.93683 97.6352 4.60772 97.47 4.44316C97.1396 4.2786 96.8092 4.11404 96.4788 4.11404C96.1484 4.11404 95.818 4.11404 95.6528 4.2786C95.3224 4.44316 95.1572 4.60772 94.992 4.77227C94.8268 4.93683 94.6616 5.26594 94.4964 5.59506C94.166 6.08873 94.1659 6.5824 94.1659 6.91151C94.1659 7.24063 94.1659 7.56974 94.3311 7.89885C94.4964 8.22797 94.6616 8.55708 94.8268 8.72164C94.992 8.8862 95.3224 9.21531 95.4876 9.21531C95.818 9.37987 95.9832 9.37987 96.3136 9.37987C96.4788 9.37987 96.644 9.37987 96.9744 9.21531C97.1396 9.21531 97.3048 9.05075 97.47 9.05075C97.6352 9.05075 97.8004 8.8862 97.9656 8.72164C98.1308 8.55708 98.1308 8.39253 98.296 8.22797L99.4525 8.55708C99.2873 8.8862 99.1221 9.05075 98.9569 9.21531C98.7917 9.37987 98.6264 9.54442 98.296 9.70898C97.9656 9.87354 97.8004 10.2027 97.47 10.3672C97.1396 10.5318 96.8092 10.5318 96.4788 10.5318C95.9832 10.5318 95.4876 10.3672 94.992 10.2027C94.4964 10.0381 94.1659 9.70898 93.8355 9.37987C93.5051 9.05075 93.3399 8.72164 93.1747 8.22797C93.0095 7.7343 93.0095 7.40518 93.0095 6.91151Z" fill="white"/>
<path d="M100.774 2.13922V0.658203H101.931V2.13922H100.774ZM100.774 10.3671V3.45567H101.931V10.3671H100.774Z" fill="white"/>
<path d="M105.565 10.5318C105.235 10.5318 104.904 10.5318 104.574 10.3672C104.409 10.2027 104.078 10.0381 103.913 9.87354C103.748 9.70898 103.583 9.37987 103.417 9.21531C103.252 8.8862 103.252 8.72164 103.252 8.39252C103.252 8.06341 103.252 7.7343 103.417 7.56974C103.583 7.24063 103.748 7.07607 104.078 6.91151C104.409 6.74696 104.574 6.5824 105.069 6.41784C105.565 6.25328 105.895 6.25328 106.226 6.25328C106.556 6.25328 106.887 6.25328 107.217 6.41784C107.547 6.5824 107.878 6.5824 108.208 6.74696V5.92417C108.208 5.4305 108.043 4.93683 107.713 4.60772C107.382 4.2786 106.887 4.11404 106.391 4.11404C105.73 4.11404 104.904 4.44316 104.243 4.93683L103.913 4.11404C104.574 3.62037 105.4 3.29126 106.391 3.29126C107.217 3.29126 108.043 3.45582 108.539 3.94949C109.034 4.44316 109.365 5.10139 109.365 5.92417V8.72164C109.365 9.05075 109.53 9.21531 109.695 9.21531V10.2027C109.53 10.2027 109.53 10.2027 109.365 10.2027C109.365 10.2027 109.199 10.2027 109.034 10.2027C108.869 10.2027 108.704 10.2027 108.539 10.0381C108.373 9.87354 108.373 9.70898 108.373 9.54442V9.05075C108.043 9.54442 107.713 9.70898 107.217 10.0381C106.556 10.3672 106.061 10.5318 105.565 10.5318ZM105.895 9.54442C106.391 9.54442 106.721 9.54442 107.052 9.37987C107.382 9.21531 107.713 9.05075 107.878 8.72164C108.043 8.55708 108.208 8.39253 108.208 8.22797V7.24063C107.713 7.07607 107.052 6.91151 106.391 6.91151C105.73 6.91151 105.4 7.07607 104.904 7.24063C104.574 7.40518 104.409 7.7343 104.409 8.22797C104.409 8.39253 104.409 8.55708 104.574 8.72164C104.739 8.8862 104.739 9.05075 104.904 9.21531C105.069 9.37987 105.235 9.37987 105.4 9.54442C105.4 9.54442 105.565 9.54442 105.895 9.54442Z" fill="white"/>
<path d="M202.044 12.0128C201.383 12.0128 200.722 11.8482 200.061 11.6837C199.401 11.5191 198.905 11.19 198.575 10.6963C198.079 10.2027 197.749 9.70901 197.583 9.21534C197.418 8.55711 197.253 8.06344 197.253 7.24065C197.253 6.58242 197.418 5.9242 197.583 5.43053C197.749 4.7723 198.244 4.27863 198.575 3.94951C199.07 3.45584 199.566 3.12673 200.061 2.96217C200.722 2.79761 201.383 2.63306 202.044 2.63306C202.705 2.63306 203.365 2.79761 204.026 2.96217C204.687 3.12673 205.183 3.45584 205.513 3.94951C206.009 4.44318 206.339 4.93685 206.504 5.43053C206.67 6.08875 206.835 6.58242 206.835 7.24065C206.835 7.89888 206.67 8.55711 206.504 9.21534C206.339 9.87356 205.844 10.3672 205.513 10.6963C205.017 11.19 204.522 11.5191 204.026 11.6837C203.531 11.8482 202.87 12.0128 202.044 12.0128ZM202.044 11.5191C202.705 11.5191 203.2 11.3546 203.696 11.19C204.191 11.0255 204.687 10.6963 205.017 10.3672C205.348 10.0381 205.678 9.54445 206.009 9.05078C206.174 8.55711 206.339 7.89888 206.339 7.24065C206.339 6.58242 206.174 6.08875 206.009 5.59508C205.844 5.10141 205.513 4.60774 205.017 4.27863C204.687 3.94951 204.191 3.6204 203.696 3.45584C203.2 3.29128 202.539 3.12673 201.879 3.12673C201.218 3.12673 200.722 3.29128 200.061 3.45584C199.566 3.6204 199.07 3.94951 198.74 4.27863C198.409 4.60774 198.079 5.10141 197.914 5.59508C197.749 6.08875 197.583 6.74698 197.583 7.24065C197.583 7.89888 197.749 8.39255 197.914 8.88622C198.079 9.37989 198.409 9.87356 198.74 10.2027C199.07 10.5318 199.566 10.8609 200.061 11.0255C200.887 11.5191 201.383 11.5191 202.044 11.5191ZM200.061 4.27863H202.539C202.87 4.27863 203.035 4.27863 203.2 4.44318C203.365 4.60774 203.531 4.7723 203.696 4.93685C203.861 5.10141 204.026 5.26597 204.026 5.59508C204.191 5.75964 204.191 6.08875 204.191 6.25331C204.191 6.74698 204.026 7.0761 203.861 7.40521C203.696 7.73432 203.365 7.89888 202.87 8.06344L204.357 10.3672H203.365L202.044 8.22799H200.722V10.3672H199.896V4.27863H200.061ZM202.539 7.40521C202.87 7.40521 203.035 7.24065 203.2 7.0761C203.365 6.91154 203.531 6.58242 203.531 6.25331C203.531 5.9242 203.365 5.59508 203.2 5.43053C203.035 5.26597 202.705 5.10141 202.539 5.10141H200.887V7.40521H202.539Z" fill="white"/>
</svg>
